<svg xmlns="http://www.w3.org/2000/svg" width="12" height="12" viewBox="0 0 12 12">
  <path id="download_FILL0_wght600_GRAD0_opsz48" d="M138.3,224.339a.658.658,0,0,1-.25-.049.715.715,0,0,1-.227-.152l-2.715-2.667a.62.62,0,0,1-.2-.48.681.681,0,0,1,.213-.48.683.683,0,0,1,.967,0l1.527,1.517v-5.479a.684.684,0,1,1,1.368,0v5.479l1.544-1.517a.683.683,0,0,1,.967,0,.666.666,0,0,1,0,.96l-2.715,2.667a.712.712,0,0,1-.231.152A.681.681,0,0,1,138.3,224.339Zm-4.633,3.528a1.321,1.321,0,0,1-.965-.4,1.3,1.3,0,0,1-.4-.958v-2.181a.642.642,0,0,1,.2-.478.672.672,0,0,1,.488-.194.661.661,0,0,1,.485.194.646.646,0,0,1,.2.477v2.187h9.264v-2.187a.641.641,0,0,1,.2-.477.672.672,0,0,1,.488-.194.661.661,0,0,1,.485.194.646.646,0,0,1,.2.477v2.187a1.288,1.288,0,0,1-.409.955,1.329,1.329,0,0,1-.96.4Z" transform="translate(-132.303 -215.867)" fill="#ffffff"/>
</svg>
