<svg xmlns="http://www.w3.org/2000/svg" width="32" height="32" viewBox="0 0 32 32">
  <path id="assistant_navigation_FILL0_wght400_GRAD0_opsz48" d="M9.64,23.52,16,20.64l6.36,2.88.2-.2L16,7.44,9.44,23.32ZM16,32a15.481,15.481,0,0,1-6.2-1.26A16.12,16.12,0,0,1,1.26,22.2,15.482,15.482,0,0,1,0,16,15.58,15.58,0,0,1,1.26,9.76,15.991,15.991,0,0,1,4.7,4.68,16.4,16.4,0,0,1,9.8,1.26,15.482,15.482,0,0,1,16,0a15.58,15.58,0,0,1,6.24,1.26,16.158,16.158,0,0,1,5.08,3.42,16.481,16.481,0,0,1,2.359,3.014A15.872,15.872,0,0,1,30.74,9.76,15.58,15.58,0,0,1,32,16a15.481,15.481,0,0,1-1.26,6.2,16.4,16.4,0,0,1-3.42,5.1,15.99,15.99,0,0,1-5.08,3.44A15.58,15.58,0,0,1,16,32Zm0-2.4a13.087,13.087,0,0,0,9.64-3.98A13.139,13.139,0,0,0,29.6,16a15.787,15.787,0,0,0-.22-2.583A12.762,12.762,0,0,0,25.64,6.36,13.12,13.12,0,0,0,16,2.4,13.139,13.139,0,0,0,6.38,6.36,13.087,13.087,0,0,0,2.4,16a13.106,13.106,0,0,0,3.98,9.62A13.106,13.106,0,0,0,16,29.6ZM16,16Z" transform="translate(32) rotate(90)" />
</svg>
