<svg xmlns="http://www.w3.org/2000/svg" width="578.88" height="33.472" viewBox="0 0 578.88 33.472">
  <g id="グループ_4512" data-name="グループ 4512" transform="translate(-663.36 -11057.528)">
    <path id="パス_23571" data-name="パス 23571" d="M-296.64-5.856h21.864v2.424H-296.64Zm.576-12.936h20.688v2.376h-20.688Zm13.248,11.424h2.832V-.624A3.63,3.63,0,0,1-280.26.96a1.8,1.8,0,0,1-1.02.84,6.6,6.6,0,0,1-1.824.324q-1.08.06-2.544.06A7.157,7.157,0,0,0-286,.888a8.869,8.869,0,0,0-.54-1.224q.648,0,1.308.024t1.176.024h.708a.84.84,0,0,0,.42-.108.394.394,0,0,0,.108-.324Zm-4.416-13.008h2.832V-8.16h-2.832Zm-5.976,18.144,2.16-1.512a14.977,14.977,0,0,1,1.332,1.008q.684.576,1.3,1.14a7.124,7.124,0,0,1,.972,1.068l-2.328,1.7a6.865,6.865,0,0,0-.888-1.1q-.576-.6-1.236-1.212A15.5,15.5,0,0,0-293.208-2.232Zm1.584-8.088V-9.1h11.808V-10.32Zm0-3.072v1.224h11.808v-1.224Zm-2.712-1.944h17.352v8.208h-17.352Zm22.992-.5h6v2.04h-6Zm11.088,0h6.048v2.04h-6.048Zm4.9-3.6h2.928v18.1a4.783,4.783,0,0,1-.312,1.932,2.018,2.018,0,0,1-1.08,1.02,5.879,5.879,0,0,1-2.016.444q-1.224.084-2.976.084a5.369,5.369,0,0,0-.216-.948q-.168-.54-.372-1.08a5.248,5.248,0,0,0-.444-.924q.768.048,1.56.06t1.4.012h.852a.745.745,0,0,0,.528-.144.662.662,0,0,0,.144-.48Zm-15.768,0h7.56V-10.1h-7.56v-2.328h4.872v-4.68h-4.872Zm17.328,0v2.328h-5.376v4.752h5.376v2.3h-8.112V-19.44Zm-18.96,0h2.856V2.16h-2.856Zm31.608-.936h2.976v3.432h-2.976Zm-8.664,1.9h20.448v5.4h-2.952v-2.784h-14.664v2.784h-2.832Zm3.672,4.128h12.96V-11.9h-12.96Zm2.328,4.3,2.232-1.3a10.9,10.9,0,0,1,2.736,2.628,10.771,10.771,0,0,1,1.512,2.952,8.924,8.924,0,0,1,.456,2.88,6.808,6.808,0,0,1-.456,2.448A3.672,3.672,0,0,1-238.56,1.2a3.982,3.982,0,0,1-1.332.792,5.26,5.26,0,0,1-1.62.216,9.582,9.582,0,0,1-.96,0l-1.08-.048a7.042,7.042,0,0,0-.216-1.38,4.227,4.227,0,0,0-.6-1.38q.672.048,1.26.084t1.044.036a3.173,3.173,0,0,0,.816-.1,1.352,1.352,0,0,0,.648-.408,1.961,1.961,0,0,0,.636-1.044,4.988,4.988,0,0,0,.144-1.68,6.967,6.967,0,0,0-.48-2.064,8.784,8.784,0,0,0-1.272-2.2A10.339,10.339,0,0,0-243.816-10.056ZM-240-13.728l2.376,1.008a14.376,14.376,0,0,1-3.072,2.34,27.7,27.7,0,0,1-3.828,1.836,37.384,37.384,0,0,1-4.02,1.32q-.144-.288-.408-.708t-.552-.852a5.984,5.984,0,0,0-.528-.7,36.248,36.248,0,0,0,3.852-.984,22.243,22.243,0,0,0,3.516-1.428A11.366,11.366,0,0,0-240-13.728Zm-1.872,4.776,1.848,1.3a20.821,20.821,0,0,1-2.4,1.584q-1.416.816-2.94,1.512t-2.868,1.176q-.24-.48-.648-1.128a6.953,6.953,0,0,0-.792-1.056q.96-.24,2.052-.612t2.16-.828q1.068-.456,2-.948A10.687,10.687,0,0,0-241.872-8.952Zm1.944,2.3,1.968,1.464a19.406,19.406,0,0,1-2.268,1.824,31.634,31.634,0,0,1-2.808,1.74q-1.5.828-3.036,1.524t-2.952,1.176a13.692,13.692,0,0,0-.684-1.236,9.388,9.388,0,0,0-.828-1.164,23.451,23.451,0,0,0,2.928-.912q1.512-.576,2.952-1.3a26.147,26.147,0,0,0,2.664-1.524A15.076,15.076,0,0,0-239.928-6.648Zm3.624-6.672a24.578,24.578,0,0,0,1.632,4.728,15.167,15.167,0,0,0,2.58,3.888,11.186,11.186,0,0,0,3.684,2.64q-.312.288-.7.72t-.732.912q-.348.48-.588.864a12.939,12.939,0,0,1-3.864-3.18,17.679,17.679,0,0,1-2.664-4.512,35.62,35.62,0,0,1-1.752-5.556Zm4.7,1.56,2.232,1.944q-.816.624-1.752,1.26t-1.848,1.176q-.912.54-1.7.972L-236.5-8.16q.744-.432,1.644-1.044t1.764-1.284A18.877,18.877,0,0,0-231.6-11.76Zm13.752-5.016q1.1.144,2.484.2t2.808.048q1.428-.012,2.748-.1t2.28-.18v3.1q-1.1.1-2.424.156t-2.712.06q-1.392,0-2.724-.06t-2.46-.156Zm1.92,10.248q-.144.6-.216,1.068a6.227,6.227,0,0,0-.072.948,1.364,1.364,0,0,0,.192.708,1.574,1.574,0,0,0,.588.552,3.126,3.126,0,0,0,1.032.336,9.43,9.43,0,0,0,1.548.108,27.665,27.665,0,0,0,3.024-.156q1.416-.156,3-.468l.048,3.24a25.626,25.626,0,0,1-2.652.336q-1.5.12-3.54.12A8.178,8.178,0,0,1-217.584-.78,3.324,3.324,0,0,1-219.1-3.672a10.272,10.272,0,0,1,.108-1.452q.108-.756.3-1.668Zm-5.616-11.856a6.819,6.819,0,0,0-.216.672q-.12.432-.228.84t-.156.624q-.072.5-.228,1.308t-.312,1.8q-.156,1-.3,2.028t-.228,1.992q-.084.96-.084,1.68,0,.336.012.768a4.718,4.718,0,0,0,.084.792q.168-.408.36-.816t.384-.828q.192-.42.336-.8l1.488,1.176q-.336.984-.684,2.112t-.624,2.124q-.276,1-.42,1.644-.048.264-.084.6a5.262,5.262,0,0,0-.036.528q0,.192.012.468t.036.516l-2.784.192a24.71,24.71,0,0,1-.648-3.324,33.021,33.021,0,0,1-.288-4.524q0-1.344.12-2.736t.288-2.676q.168-1.284.324-2.34t.276-1.752q.048-.5.132-1.14t.108-1.212Zm29.664-.864q-.048.336-.1.828t-.072,1.008q-.024.516-.048.972-.024.864-.012,1.872t.012,2.04q0,1.008.06,2.364t.156,2.8q.1,1.44.156,2.676t.06,2a4.973,4.973,0,0,1-.24,1.536A3.361,3.361,0,0,1-192.72.18a4.018,4.018,0,0,1-1.56.936,7.59,7.59,0,0,1-2.5.348,11.067,11.067,0,0,1-3.132-.42,4.683,4.683,0,0,1-2.268-1.38,3.8,3.8,0,0,1-.84-2.592A3.843,3.843,0,0,1-202.3-5.2a4.82,4.82,0,0,1,2.172-1.62,9.644,9.644,0,0,1,3.66-.6,15.23,15.23,0,0,1,3.636.432,19.875,19.875,0,0,1,3.312,1.116,17.958,17.958,0,0,1,2.808,1.536,17.005,17.005,0,0,1,2.172,1.716L-186.384.24a21.879,21.879,0,0,0-2.028-1.776A17.409,17.409,0,0,0-190.9-3.144a14.849,14.849,0,0,0-2.868-1.164,11.225,11.225,0,0,0-3.156-.444,4.566,4.566,0,0,0-2.2.444,1.364,1.364,0,0,0-.8,1.236,1.265,1.265,0,0,0,.816,1.248,5.2,5.2,0,0,0,2.088.36A2.062,2.062,0,0,0-195.408-2a2.585,2.585,0,0,0,.48-1.74q0-.624-.048-1.74t-.1-2.424q-.048-1.308-.1-2.532t-.048-2.088v-2.76q0-.648-.024-1.152-.024-.6-.06-1.128t-.072-.96a3.138,3.138,0,0,0-.132-.72Zm-1.848,4.584q.528,0,1.512-.012t2.172-.06q1.188-.048,2.4-.132t2.244-.18l.1,2.856q-1.008.1-2.232.168t-2.424.108q-1.2.036-2.2.06t-1.548.024Zm15.768-3.624q.5.072,1.08.1t1.1.024q.384,0,1.152-.012t1.74-.036l1.932-.048q.96-.024,1.74-.06t1.212-.06q.744-.072,1.176-.132a3.892,3.892,0,0,0,.648-.132l1.56,2.136q-.408.264-.84.528a9.765,9.765,0,0,0-.84.576q-.48.336-1.152.876t-1.428,1.14q-.756.6-1.464,1.176t-1.284,1.032a9.209,9.209,0,0,1,1.152-.2,10.433,10.433,0,0,1,1.128-.06,8.225,8.225,0,0,1,3.66.792,6.593,6.593,0,0,1,2.568,2.148,5.291,5.291,0,0,1,.948,3.108,6.343,6.343,0,0,1-.96,3.432A6.626,6.626,0,0,1-166.02.48a11.315,11.315,0,0,1-4.836.912,8.769,8.769,0,0,1-2.988-.48,4.9,4.9,0,0,1-2.1-1.368,3.091,3.091,0,0,1-.768-2.088,3.367,3.367,0,0,1,.54-1.836,4.013,4.013,0,0,1,1.512-1.38,4.627,4.627,0,0,1,2.244-.528,5.5,5.5,0,0,1,2.8.66,4.581,4.581,0,0,1,1.752,1.764,5.113,5.113,0,0,1,.636,2.424l-2.808.384a3.43,3.43,0,0,0-.66-2.124,2.049,2.049,0,0,0-1.692-.8,1.607,1.607,0,0,0-1.08.348,1.034,1.034,0,0,0-.408.8,1.226,1.226,0,0,0,.672,1.08,3.341,3.341,0,0,0,1.752.408,10.167,10.167,0,0,0,3.408-.492A4.254,4.254,0,0,0-166-3.252a3.588,3.588,0,0,0,.684-2.2,2.927,2.927,0,0,0-.66-1.9,4.328,4.328,0,0,0-1.788-1.272,6.737,6.737,0,0,0-2.544-.456,8.772,8.772,0,0,0-2.544.348,9.014,9.014,0,0,0-2.172.984A13.293,13.293,0,0,0-177.012-6.2a25.794,25.794,0,0,0-1.932,2l-2.184-2.256q.648-.528,1.464-1.188T-178-9.024q.852-.72,1.608-1.356t1.284-1.068q.5-.408,1.176-.96t1.392-1.14q.72-.588,1.368-1.128t1.08-.924q-.36,0-.936.024t-1.26.048l-1.368.048q-.684.024-1.272.06l-.972.06q-.48.024-1.008.072t-.96.12Zm19.152-.192h21.24v2.64h-21.24Zm2.3,4.2h16.752v2.5H-156.5Zm-1.992,3.7h20.616v5.16h-2.9V-7.992h-14.928v2.568H-158.5Zm8.688-9.768h3v7.464h-3Zm2.88,13.1h2.88v5.664a.966.966,0,0,0,.18.708,1.417,1.417,0,0,0,.828.156h2.424a.831.831,0,0,0,.612-.2,1.478,1.478,0,0,0,.288-.816q.084-.612.132-1.836a4.222,4.222,0,0,0,.756.432,8.21,8.21,0,0,0,.96.372l.876.276A10.256,10.256,0,0,1-137.5.18a2.4,2.4,0,0,1-1.032,1.32,3.78,3.78,0,0,1-1.824.372h-3.1A5.832,5.832,0,0,1-145.6,1.56,1.81,1.81,0,0,1-146.64.492a5.921,5.921,0,0,1-.288-2.052Zm-5.928,0h2.976a19.54,19.54,0,0,1-.48,3.288A7.739,7.739,0,0,1-151.548-1.3,7.192,7.192,0,0,1-153.9.756a15.388,15.388,0,0,1-4,1.476,4.215,4.215,0,0,0-.384-.84,10.179,10.179,0,0,0-.588-.9,8.561,8.561,0,0,0-.612-.756A13.774,13.774,0,0,0-156.048-1.3a5.2,5.2,0,0,0,1.92-1.488,5.148,5.148,0,0,0,.9-1.968A18.376,18.376,0,0,0-152.856-7.248Zm27-5.928h9.984v2.9h-9.984ZM-136.128-1.944h21.96V.96h-21.96Zm8.64-18.144h3.1V-.336h-3.1Zm36.288,3.84q-.192.24-.48.612t-.456.636A23.644,23.644,0,0,1-93.6-12.852a30.25,30.25,0,0,1-2.016,2.4A15.147,15.147,0,0,1-97.9-8.424l-2.5-1.992a11.523,11.523,0,0,0,1.416-1.008,13.251,13.251,0,0,0,1.284-1.212q.588-.636,1.032-1.212a7.346,7.346,0,0,0,.684-1.032h-12.5q-.744,0-1.416.048t-1.512.12v-3.336q.7.1,1.44.168t1.488.072h12.936q.336,0,.816-.024t.948-.072a3.487,3.487,0,0,0,.684-.12Zm-9.792,3.24q0,1.776-.072,3.432a19.3,19.3,0,0,1-.4,3.18A11.437,11.437,0,0,1-102.492-3.5a10.236,10.236,0,0,1-1.956,2.592,13.7,13.7,0,0,1-3.192,2.256l-2.808-2.28a9.412,9.412,0,0,0,1.224-.516,8.784,8.784,0,0,0,1.3-.8,8.538,8.538,0,0,0,1.86-1.68,6.907,6.907,0,0,0,1.092-1.932,9.909,9.909,0,0,0,.528-2.28,23.422,23.422,0,0,0,.144-2.7q0-.552-.024-1.068a6.95,6.95,0,0,0-.144-1.092Zm22.032-1.248q.168.384.444,1.092t.588,1.512q.312.8.552,1.524T-76.992-9l-2.88,1.008a10.017,10.017,0,0,0-.336-1.152q-.24-.7-.528-1.476t-.576-1.5q-.288-.72-.5-1.2ZM-70.1-12.5q-.192.576-.324.984t-.252.768a23.005,23.005,0,0,1-1.248,3.636,16.046,16.046,0,0,1-2.016,3.4,17.879,17.879,0,0,1-3.8,3.66,18.852,18.852,0,0,1-4.236,2.292L-84.5-.336A16.268,16.268,0,0,0-81.72-1.4,17.934,17.934,0,0,0-78.888-3.12a12.534,12.534,0,0,0,2.352-2.232,12.427,12.427,0,0,0,1.452-2.364,17.251,17.251,0,0,0,1.056-2.856,17.77,17.77,0,0,0,.564-3.012Zm-14.424-.48q.24.456.54,1.176t.612,1.512q.312.792.612,1.536t.468,1.248l-2.928,1.1q-.144-.48-.42-1.248t-.612-1.62q-.336-.852-.636-1.572a11.011,11.011,0,0,0-.516-1.1Zm35.784-4.608a1.3,1.3,0,0,0,.408.972,1.333,1.333,0,0,0,.96.4,1.362,1.362,0,0,0,.984-.4,1.3,1.3,0,0,0,.408-.972,1.341,1.341,0,0,0-.408-.984,1.341,1.341,0,0,0-.984-.408,1.314,1.314,0,0,0-.96.408A1.341,1.341,0,0,0-48.744-17.592Zm-1.488,0a2.769,2.769,0,0,1,.4-1.452,2.966,2.966,0,0,1,1.044-1.044,2.727,2.727,0,0,1,1.416-.384,2.835,2.835,0,0,1,1.452.384,2.841,2.841,0,0,1,1.044,1.044,2.835,2.835,0,0,1,.384,1.452,2.727,2.727,0,0,1-.384,1.416,2.966,2.966,0,0,1-1.044,1.044,2.769,2.769,0,0,1-1.452.4,2.665,2.665,0,0,1-1.416-.4,3.1,3.1,0,0,1-1.044-1.044A2.665,2.665,0,0,1-50.232-17.592Zm2.9,1.9a4.06,4.06,0,0,0-.288.8q-.12.468-.24.852-.192.888-.5,1.98T-49.1-9.792a21.2,21.2,0,0,1-1.02,2.328A15.479,15.479,0,0,1-51.456-5.3a17.276,17.276,0,0,1-2.52,2.688A19.856,19.856,0,0,1-57.192-.36a21.222,21.222,0,0,1-3.912,1.7l-2.616-2.88a20.336,20.336,0,0,0,4.128-1.416,14.5,14.5,0,0,0,3.012-1.92,16.636,16.636,0,0,0,2.268-2.3A11.739,11.739,0,0,0-52.956-9.36a17.689,17.689,0,0,0,.936-2.364,13.9,13.9,0,0,0,.516-2.22h-11.16q-.84,0-1.62.024t-1.236.072v-3.384q.36.048.876.1t1.056.072q.54.024.924.024h11.112q.36,0,.876-.024a4.119,4.119,0,0,0,1-.168Zm16.512-.744q-.24,1.824-.624,3.888a37.822,37.822,0,0,1-1.032,4.176A21.452,21.452,0,0,1-34.1-4.2a9.154,9.154,0,0,1-2.052,2.7,3.685,3.685,0,0,1-2.436.948,3.8,3.8,0,0,1-2.436-.9A6.147,6.147,0,0,1-42.8-3.936a9.287,9.287,0,0,1-.66-3.6,9.4,9.4,0,0,1,.84-3.936,10.471,10.471,0,0,1,2.34-3.276,11.094,11.094,0,0,1,3.5-2.244,11.377,11.377,0,0,1,4.332-.816,10.68,10.68,0,0,1,4.02.72,9.048,9.048,0,0,1,3.06,1.992,8.646,8.646,0,0,1,1.944,2.976,9.919,9.919,0,0,1,.672,3.672,9.664,9.664,0,0,1-1.032,4.512,8.531,8.531,0,0,1-3.06,3.288A13.121,13.121,0,0,1-31.9,1.128l-1.8-2.856Q-33-1.8-32.472-1.9t1.008-.216a9.133,9.133,0,0,0,2.148-.828,6.7,6.7,0,0,0,1.74-1.344,5.88,5.88,0,0,0,1.164-1.884,6.5,6.5,0,0,0,.42-2.376,7.467,7.467,0,0,0-.432-2.592A5.836,5.836,0,0,0-27.7-13.188a5.6,5.6,0,0,0-2.04-1.344A7.559,7.559,0,0,0-32.5-15a7.913,7.913,0,0,0-3.384.684,7.922,7.922,0,0,0-2.472,1.764,7.745,7.745,0,0,0-1.524,2.328,6.22,6.22,0,0,0-.516,2.376,6,6,0,0,0,.288,2,3.033,3.033,0,0,0,.708,1.2,1.3,1.3,0,0,0,.9.4,1.4,1.4,0,0,0,1-.516,5.756,5.756,0,0,0,.972-1.572A21.268,21.268,0,0,0-35.568-9a32.78,32.78,0,0,0,.936-3.7,37.614,37.614,0,0,0,.552-3.84Zm21.672,1.3h2.808V-1.872a2.1,2.1,0,0,0,.144.984q.144.216.672.216h1.968a.573.573,0,0,0,.528-.276,2.753,2.753,0,0,0,.252-1.02q.084-.744.132-2.16a5.469,5.469,0,0,0,1.2.684,11.286,11.286,0,0,0,1.32.492A13.781,13.781,0,0,1-.6-.048a2.86,2.86,0,0,1-.972,1.536,2.89,2.89,0,0,1-1.716.456H-6A4.276,4.276,0,0,1-7.908,1.6,1.935,1.935,0,0,1-8.868.42,7.632,7.632,0,0,1-9.144-1.9Zm-2.64,3.24,2.3.456q-.12,1.392-.3,2.832a20.211,20.211,0,0,1-.528,2.736,9.891,9.891,0,0,1-.9,2.28L-13.44-4.632A9.971,9.971,0,0,0-12.6-6.72a18.991,18.991,0,0,0,.528-2.508Q-11.88-10.56-11.784-11.9Zm8.88.408,2.424-.672A21.209,21.209,0,0,1,.48-9.78a25.38,25.38,0,0,1,.708,2.508A18.168,18.168,0,0,1,1.56-5.064l-2.616.72a14.274,14.274,0,0,0-.312-2.208Q-1.632-7.8-2.028-9.1A22.547,22.547,0,0,0-2.9-11.5ZM-9.84-18.36l1.824-1.848q.864.456,1.788,1.044A20.667,20.667,0,0,1-4.5-17.94a9.911,9.911,0,0,1,1.308,1.212l-1.968,2.04a10.966,10.966,0,0,0-1.224-1.224,21.168,21.168,0,0,0-1.68-1.32A19.063,19.063,0,0,0-9.84-18.36Zm-7.824.144h2.736V2.136h-2.736Zm-3.408,4.584h8.664v2.64h-8.664Zm3.36,1.056,1.68.72q-.312,1.272-.744,2.664t-.972,2.772q-.54,1.38-1.14,2.58a14.688,14.688,0,0,1-1.248,2.088,6.274,6.274,0,0,0-.36-.912q-.24-.5-.492-1a8.677,8.677,0,0,0-.492-.852,14.918,14.918,0,0,0,1.524-2.364,27.762,27.762,0,0,0,1.32-2.88A23.985,23.985,0,0,0-17.712-12.576Zm3.672-7.488L-12.1-17.9a24.068,24.068,0,0,1-2.616.816q-1.416.36-2.892.624t-2.868.456A5.309,5.309,0,0,0-20.8-17.1q-.252-.636-.468-1.092,1.3-.192,2.616-.48t2.52-.648A19.229,19.229,0,0,0-14.04-20.064ZM-15-10.656q.216.192.612.6t.852.888q.456.48.84.9t.528.612l-1.68,2.112q-.168-.408-.468-.972t-.66-1.14l-.7-1.116q-.336-.54-.576-.876Zm12.72-8.4,2.688.624a45.246,45.246,0,0,1-2.544,8.076A28.291,28.291,0,0,1-6.144-3.648a24.8,24.8,0,0,1-5.928,5.256,6.077,6.077,0,0,0-.552-.684q-.36-.4-.756-.78a3.8,3.8,0,0,0-.732-.576,23.03,23.03,0,0,0,5.664-4.86,25.585,25.585,0,0,0,3.852-6.3A38.135,38.135,0,0,0-2.28-19.056ZM11.064-9.888H24.456v2.712H11.064Zm.864-6.7H23.04v8.376H20.328V-13.92h-8.4Zm3.432-3.84h2.808v9.456A36.444,36.444,0,0,1,17.976-7.2a15.266,15.266,0,0,1-.8,3.564,11.076,11.076,0,0,1-1.8,3.2,11.351,11.351,0,0,1-3.2,2.664,4.958,4.958,0,0,0-.492-.8q-.324-.444-.684-.876A4.413,4.413,0,0,0,10.32-.12a9.979,9.979,0,0,0,2.7-2.232,8.926,8.926,0,0,0,1.5-2.628,12.779,12.779,0,0,0,.672-2.928,28.125,28.125,0,0,0,.168-3.084ZM19.32-8.232a16.394,16.394,0,0,0,2.028,4.668A10.216,10.216,0,0,0,24.7-.24q-.336.288-.744.708a9.719,9.719,0,0,0-.756.876,8.756,8.756,0,0,0-.588.864A11.435,11.435,0,0,1,19.02-1.848,24.8,24.8,0,0,1,16.8-7.584Zm-16.368-4.8h7.44v2.184H2.952Zm.1-6.6h7.3v2.16h-7.3Zm-.1,9.888h7.44v2.16H2.952ZM1.8-16.416h9.432v2.28H1.8ZM4.272-6.432h6.072V.888H4.272v-2.28h3.6v-2.76h-3.6Zm-1.392,0H5.328V1.824H2.88Zm23.136-11.64,1.272-1.968q.816.192,1.752.492t1.836.624q.9.324,1.5.612l-1.3,2.184q-.576-.288-1.44-.66T27.816-17.5Q26.856-17.832,26.016-18.072ZM24.96-14.016q1.32-.24,3.18-.672t3.756-.864L32.16-13.3q-1.56.5-3.156.948t-2.964.828Zm10.632-4.776h9.216v2.04H33.984Zm8.544,0h.408l.432-.1,1.9.5A21.946,21.946,0,0,1,45.8-16.416a12.815,12.815,0,0,1-1.188,1.68l-2.256-.7a10.952,10.952,0,0,0,.984-1.428,10.9,10.9,0,0,0,.792-1.6Zm-6.072.864h2.568a9.915,9.915,0,0,1-.576,2.316,5.506,5.506,0,0,1-1.188,1.848,6.854,6.854,0,0,1-2.088,1.4,15.4,15.4,0,0,1-3.348,1.008,5.966,5.966,0,0,0-.552-1.068,5.56,5.56,0,0,0-.744-.972,15.9,15.9,0,0,0,2.832-.7,5.434,5.434,0,0,0,1.716-.948,3.547,3.547,0,0,0,.924-1.26A6.741,6.741,0,0,0,38.064-17.928Zm2.424.6a4.65,4.65,0,0,0,.492,1.3,3.566,3.566,0,0,0,1.068,1.14,7.023,7.023,0,0,0,2.016.912,19.537,19.537,0,0,0,3.336.636,6.246,6.246,0,0,0-.816,1.128,9.03,9.03,0,0,0-.624,1.248,14.61,14.61,0,0,1-3.66-1.008,7.394,7.394,0,0,1-2.232-1.464A5.944,5.944,0,0,1,38.844-15.2a12.027,12.027,0,0,1-.66-1.884ZM35.52-20.4l2.544.432a19.321,19.321,0,0,1-1.632,2.724,12.323,12.323,0,0,1-2.3,2.412,5.363,5.363,0,0,0-1.02-.768,8.563,8.563,0,0,0-1.164-.6,10.2,10.2,0,0,0,2.208-2.028A10.528,10.528,0,0,0,35.52-20.4ZM31.008-7.32v1.008h10.44V-7.32Zm0,2.64v1.056h10.44V-4.68Zm0-5.3v1.032h10.44V-9.984Zm-2.784-1.7H44.352V-1.92H28.224Zm9.24,11.04,2.4-1.368q1.3.456,2.628.972T45.036-.012Q46.248.5,47.088.912l-3.36,1.3q-.672-.384-1.68-.888T39.876.3Q38.712-.216,37.464-.648Zm-5.3-1.464,2.616,1.2A18.132,18.132,0,0,1,32.52.312q-1.3.6-2.664,1.092t-2.592.828q-.264-.288-.636-.684t-.78-.792a8.582,8.582,0,0,0-.72-.636q1.272-.24,2.58-.576a24.933,24.933,0,0,0,2.472-.768A14.279,14.279,0,0,0,32.16-2.112ZM51.72-20.28h2.64V2.088H51.72Zm-3.648,7.9h9.84V-9.7h-9.84Zm3.12,1.416,1.608.792q-.312,1.2-.72,2.532t-.912,2.652q-.5,1.32-1.056,2.484A12.912,12.912,0,0,1,48.936-.48a7.484,7.484,0,0,0-.348-1q-.228-.54-.48-1.068t-.468-.912a13.217,13.217,0,0,0,1.4-2.2q.684-1.308,1.26-2.712A20.537,20.537,0,0,0,51.192-10.968Zm3.144,1.392q.192.192.564.6t.828.924q.456.516.876,1.032t.768.924a7.416,7.416,0,0,1,.492.624L56.112-3.216q-.24-.528-.624-1.236t-.84-1.464q-.456-.756-.888-1.428t-.744-1.1Zm-6.288-8.856,2.016-.528a19.3,19.3,0,0,1,.564,1.872q.252,1.008.42,1.968t.24,1.728l-2.16.576a13.831,13.831,0,0,0-.18-1.74q-.156-.972-.384-1.992A19.246,19.246,0,0,0,48.048-18.432Zm7.9-.648,2.424.528q-.288.984-.624,2.016t-.672,1.98q-.336.948-.624,1.668l-1.824-.528q.264-.768.516-1.764t.468-2.028Q55.824-18.24,55.944-19.08Zm9.1-1.32h2.688V2.136H65.04ZM57.864-5.376,70.2-7.584l.432,2.664L58.3-2.688Zm1.344-11.76,1.416-1.944q.672.384,1.4.888T63.42-17.16a7.477,7.477,0,0,1,1.044.984l-1.488,2.16a6.891,6.891,0,0,0-1-1.032q-.636-.552-1.356-1.1T59.208-17.136Zm-1.08,6.048,1.344-2.064a16.2,16.2,0,0,1,1.488.852q.768.492,1.464.984a7.6,7.6,0,0,1,1.128.948l-1.464,2.3a7.671,7.671,0,0,0-1.056-1Q60.36-9.6,59.6-10.14A16.793,16.793,0,0,0,58.128-11.088Zm23.736-8.16q-.12.648-.384,1.68a20.62,20.62,0,0,1-.768,2.328q-.384.888-.876,1.836a16.916,16.916,0,0,1-1,1.692,4.03,4.03,0,0,1,.792-.252,9.572,9.572,0,0,1,1-.168,8.085,8.085,0,0,1,.924-.06,3.69,3.69,0,0,1,2.508.864,3.216,3.216,0,0,1,1,2.568q0,.48.012,1.176T85.1-6.132q.024.756.048,1.476t.024,1.3H82.3q.048-.408.06-.972T82.38-5.52q.012-.624.024-1.212T82.416-7.8A1.848,1.848,0,0,0,81.8-9.4a2.256,2.256,0,0,0-1.356-.444,4.636,4.636,0,0,0-2.028.492A6.529,6.529,0,0,0,76.7-8.184q-.528.528-1.068,1.176T74.472-5.544L71.9-7.464a32.007,32.007,0,0,0,2.7-2.784,20.243,20.243,0,0,0,1.932-2.664,16.753,16.753,0,0,0,1.3-2.64,14.527,14.527,0,0,0,.588-2,12.212,12.212,0,0,0,.276-1.956ZM72.84-17.04q.912.144,2.112.216t2.112.072q1.584,0,3.468-.072t3.828-.252q1.944-.18,3.7-.468l-.024,2.784q-1.272.168-2.748.3t-3,.216q-1.524.084-2.916.12t-2.472.036q-.48,0-1.188-.012t-1.452-.048q-.744-.036-1.416-.084Zm19.008,6.816q-.384.12-.9.3l-1.032.36q-.516.18-.924.348-1.152.456-2.724,1.1T82.992-6.6a14.66,14.66,0,0,0-1.824,1.128A4.814,4.814,0,0,0,80.04-4.356a2.15,2.15,0,0,0-.384,1.236,1.464,1.464,0,0,0,.216.828,1.469,1.469,0,0,0,.648.516,3.679,3.679,0,0,0,1.08.264,14.143,14.143,0,0,0,1.536.072q1.536,0,3.384-.18t3.432-.492l-.1,3.1q-.768.1-1.944.2t-2.436.156q-1.26.048-2.412.048a14.328,14.328,0,0,1-3.36-.36A4.726,4.726,0,0,1,77.364-.2a3.313,3.313,0,0,1-.852-2.412,4.54,4.54,0,0,1,.564-2.256,6.862,6.862,0,0,1,1.5-1.824,13.812,13.812,0,0,1,2.052-1.476q1.116-.66,2.2-1.212,1.1-.576,1.992-.984t1.668-.732q.78-.324,1.5-.66.7-.312,1.344-.612t1.32-.636ZM107.592-12h6.7v2.736h-6.7ZM106.2-12h2.856V-1.992a1.464,1.464,0,0,0,.192.936,1.41,1.41,0,0,0,.912.192h2.688a.836.836,0,0,0,.684-.276,2.318,2.318,0,0,0,.336-1.092q.108-.816.18-2.4a4.738,4.738,0,0,0,.768.468,9.138,9.138,0,0,0,.948.408,8.811,8.811,0,0,0,.876.276,14.633,14.633,0,0,1-.5,3.192,2.914,2.914,0,0,1-1.08,1.632,3.511,3.511,0,0,1-1.968.48h-3.36a5.474,5.474,0,0,1-2.1-.324A2.014,2.014,0,0,1,106.536.348a6.442,6.442,0,0,1-.336-2.34Zm-.072-7.3H115.7V-7.752H112.92v-8.76h-6.792ZM94.7-15.048h10.08V1.68H102.5V-12.672H96.912V2.016H94.7ZM95.88-5.376h7.7v1.992h-7.7Zm0,3.648h7.7V.5h-7.7ZM94.248-19.512H105.24v2.52H94.248Zm3.24.576H99.36v5.76H97.488Zm2.832,0h1.92v5.76h-1.92ZM97.944-13.2h1.344v2.448A10.629,10.629,0,0,1,99.18-9.3a6.61,6.61,0,0,1-.408,1.536,4.67,4.67,0,0,1-.852,1.38,5.779,5.779,0,0,0-.492-.48,2.76,2.76,0,0,0-.564-.408A3.552,3.552,0,0,0,97.572-8.4a5.07,5.07,0,0,0,.3-1.212,9.979,9.979,0,0,0,.072-1.164Zm2.16,0h1.344v4.416a1.086,1.086,0,0,0,.024.3q.024.06.144.06h.432q.264,0,.312-.072a2.385,2.385,0,0,0,.576.312,4.622,4.622,0,0,0,.672.216,1.187,1.187,0,0,1-.444.732,1.5,1.5,0,0,1-.876.228h-.84a1.346,1.346,0,0,1-1.056-.336A2.354,2.354,0,0,1,100.1-8.76Zm17.448-3.768h21.5v2.76h-21.5Zm10.536,3.624h2.9V2.136h-2.9Zm-6.7,2.76h14.856v2.736H124.272V0h-2.88Zm13.608,0h2.9v7.512a4.059,4.059,0,0,1-.252,1.572,1.745,1.745,0,0,1-.972.9,4.789,4.789,0,0,1-1.668.384q-1,.072-2.364.072a6.33,6.33,0,0,0-.336-1.344,8.873,8.873,0,0,0-.552-1.272q.552.024,1.116.024h1.62a.675.675,0,0,0,.4-.084A.394.394,0,0,0,135-3.144Zm-9.744-9.864,2.976.672a41.961,41.961,0,0,1-2.2,5.832,28.592,28.592,0,0,1-3.228,5.364,19.625,19.625,0,0,1-4.464,4.26,7.278,7.278,0,0,0-.468-.828q-.3-.468-.612-.924a9.551,9.551,0,0,0-.576-.768,15.166,15.166,0,0,0,3.084-2.652,20.446,20.446,0,0,0,2.436-3.372,28.5,28.5,0,0,0,1.824-3.756A28.245,28.245,0,0,0,125.256-20.448Zm22.968,1.416q-.1.744-.18,1.608t-.132,1.584q-.024.984-.084,2.388t-.1,2.94q-.036,1.536-.072,3.024T147.624-4.9a3.564,3.564,0,0,0,.444,1.908,2.465,2.465,0,0,0,1.188,1.008,4.459,4.459,0,0,0,1.68.3,8.777,8.777,0,0,0,2.712-.4,8.986,8.986,0,0,0,2.232-1.068,9.668,9.668,0,0,0,1.812-1.56,15.434,15.434,0,0,0,1.452-1.872l2.184,2.64a12.972,12.972,0,0,1-1.512,1.824,13.1,13.1,0,0,1-2.22,1.8,11.9,11.9,0,0,1-2.964,1.368,12.366,12.366,0,0,1-3.72.528,8.764,8.764,0,0,1-3.42-.612,4.778,4.778,0,0,1-2.256-1.9,6.179,6.179,0,0,1-.8-3.324q0-.984.024-2.244t.072-2.628q.048-1.368.072-2.676t.048-2.364q.024-1.056.024-1.68,0-.864-.072-1.692a11.018,11.018,0,0,0-.24-1.548Zm15.12,2.52q.72-.024,1.368-.06t1.008-.06q.744-.072,1.824-.168l2.436-.216q1.356-.12,2.892-.252l3.192-.276q1.248-.1,2.5-.18t2.364-.144q1.116-.06,1.932-.084l.024,3.072q-.648,0-1.488.024t-1.668.084a10.274,10.274,0,0,0-1.476.2,5.9,5.9,0,0,0-2,.972,7.774,7.774,0,0,0-1.62,1.62,7.452,7.452,0,0,0-1.068,2,6.492,6.492,0,0,0-.372,2.148,4.981,4.981,0,0,0,.408,2.076,4.434,4.434,0,0,0,1.14,1.536,6.459,6.459,0,0,0,1.716,1.056,10.259,10.259,0,0,0,2.124.636,18.537,18.537,0,0,0,2.364.288l-1.128,3.288a14.938,14.938,0,0,1-2.94-.48A12.171,12.171,0,0,1,174.2-.48a8.88,8.88,0,0,1-2.172-1.644,7.2,7.2,0,0,1-1.464-2.232,7.231,7.231,0,0,1-.528-2.82,8.853,8.853,0,0,1,.552-3.192A10.453,10.453,0,0,1,171.96-12.9a8.087,8.087,0,0,1,1.632-1.692q-.672.072-1.62.18t-2.04.24q-1.092.132-2.22.276t-2.172.324q-1.044.18-1.884.348Zm31.08-2.976q-.024.192-.072.588t-.084.792q-.036.4-.06.708-.048.7-.084,1.524t-.06,1.7q-.024.876-.036,1.764t-.012,1.728q0,.984.024,2.172t.06,2.352q.036,1.164.048,2.124t.012,1.488a6.469,6.469,0,0,1-.324,2.3A2.11,2.11,0,0,1,192.912.9a2.885,2.885,0,0,1-1.392.324,5.556,5.556,0,0,1-1.848-.348A7.1,7.1,0,0,1,187.836-.1a5.565,5.565,0,0,1-1.392-1.452,3.211,3.211,0,0,1-.54-1.788,3.749,3.749,0,0,1,.876-2.292,9.5,9.5,0,0,1,2.328-2.1,13.723,13.723,0,0,1,3.132-1.536,17.416,17.416,0,0,1,3.312-.876,19.394,19.394,0,0,1,3.072-.276,8.7,8.7,0,0,1,3.336.612,5.547,5.547,0,0,1,2.376,1.788,4.564,4.564,0,0,1,.888,2.832,6.2,6.2,0,0,1-.528,2.568A5.094,5.094,0,0,1,203-.588,8.822,8.822,0,0,1,199.92.744Q199.1.912,198.3,1t-1.524.132l-1.1-3.1q.816,0,1.572-.036a13.273,13.273,0,0,0,1.38-.132,7.229,7.229,0,0,0,1.776-.576,3.281,3.281,0,0,0,1.248-1.008,2.453,2.453,0,0,0,.456-1.488A2.212,2.212,0,0,0,201.66-6.6a2.822,2.822,0,0,0-1.236-.888,5.024,5.024,0,0,0-1.848-.312,15.458,15.458,0,0,0-3.06.312,17.858,17.858,0,0,0-2.964.864,10.483,10.483,0,0,0-1.9.948,5.75,5.75,0,0,0-1.32,1.116,1.758,1.758,0,0,0-.48,1.1.912.912,0,0,0,.18.54,1.779,1.779,0,0,0,.468.444,2.723,2.723,0,0,0,.588.3,1.566,1.566,0,0,0,.516.108.772.772,0,0,0,.552-.2,1.112,1.112,0,0,0,.216-.8q0-.648-.036-1.86t-.072-2.7q-.036-1.488-.036-2.952,0-1.008.012-2.04t.012-1.968q0-.936.012-1.656t.012-1.128q0-.264-.024-.672t-.06-.828a4.309,4.309,0,0,0-.084-.612Zm6.84,2.592q.912.432,2.052,1.056T205.5-14.6a16.443,16.443,0,0,1,1.668,1.092l-1.44,2.448a12.636,12.636,0,0,0-1.188-.864q-.732-.48-1.584-.984t-1.644-.948q-.792-.444-1.368-.708Zm-14.712,1.32q1.056.12,1.86.156t1.452.036q.936,0,2.064-.084t2.3-.24q1.176-.156,2.292-.372t2.028-.48l.072,2.976q-1.008.24-2.184.42t-2.364.324q-1.188.144-2.256.216t-1.86.072q-1.2,0-1.968-.024t-1.392-.1Zm29.112-3.7q-.12.432-.264,1.08t-.288,1.356q-.144.708-.252,1.38T214.7-14.28a9.706,9.706,0,0,1,1.032-1.4,8.78,8.78,0,0,1,1.356-1.248,6.634,6.634,0,0,1,1.656-.9,5.41,5.41,0,0,1,1.908-.336,4.84,4.84,0,0,1,3.024,1.032,6.875,6.875,0,0,1,2.124,2.952,12.086,12.086,0,0,1,.78,4.56,12.214,12.214,0,0,1-.744,4.452A9,9,0,0,1,223.7-1.92a11.289,11.289,0,0,1-3.324,2.2,19.132,19.132,0,0,1-4.308,1.284l-1.824-2.784a23.9,23.9,0,0,0,3.66-.852,9.4,9.4,0,0,0,2.88-1.476,6.17,6.17,0,0,0,1.872-2.412,8.9,8.9,0,0,0,.66-3.636,11.052,11.052,0,0,0-.384-3.132,4.238,4.238,0,0,0-1.116-1.956,2.486,2.486,0,0,0-1.74-.672,3.383,3.383,0,0,0-2.016.7,7.174,7.174,0,0,0-1.716,1.812,10.139,10.139,0,0,0-1.2,2.412,8.783,8.783,0,0,0-.492,2.5q-.024.5-.012,1.1a12.131,12.131,0,0,0,.132,1.44l-2.952.192q-.1-.7-.2-1.74a22.118,22.118,0,0,1-.108-2.268q0-.84.06-1.8t.144-1.956q.084-1,.216-2t.252-1.92q.1-.7.144-1.368t.048-1.152Zm28.7-.144q-.048.36-.084.8t-.06.9q-.024.48-.048,1.284t-.024,1.764v3.6q0,1.008.048,2.244t.132,2.5q.084,1.26.144,2.352t.06,1.812a3.345,3.345,0,0,1-.528,1.836A3.568,3.568,0,0,1,242.436.984a6.3,6.3,0,0,1-2.628.48A7.522,7.522,0,0,1,235.44.408a3.414,3.414,0,0,1-1.488-2.952,3.433,3.433,0,0,1,.708-2.148,4.652,4.652,0,0,1,2.04-1.452,8.622,8.622,0,0,1,3.18-.528,15.463,15.463,0,0,1,3.684.42A16.364,16.364,0,0,1,246.7-5.16a19.37,19.37,0,0,1,2.52,1.416q1.1.744,1.872,1.344L249.36.288a21.213,21.213,0,0,0-1.932-1.608A16.788,16.788,0,0,0,245.1-2.76,14.289,14.289,0,0,0,242.436-3.8a10.87,10.87,0,0,0-2.964-.4,3.62,3.62,0,0,0-1.932.432,1.244,1.244,0,0,0-.684,1.056,1.178,1.178,0,0,0,.288.792,1.741,1.741,0,0,0,.84.5,4.865,4.865,0,0,0,1.392.168,3.819,3.819,0,0,0,1.116-.144,1.336,1.336,0,0,0,.732-.528A1.89,1.89,0,0,0,241.488-3q0-.528-.036-1.512t-.084-2.172q-.048-1.188-.1-2.34t-.048-2.04q0-.864.012-1.812t.012-1.884q0-.936.012-1.716t.012-1.284q0-.336-.036-.828a6.2,6.2,0,0,0-.108-.828Zm-9.96,2.256q.648.1,1.44.192t1.62.18q.828.084,1.572.12t1.3.036q2.448,0,4.884-.156t5.052-.588l-.024,2.76q-1.224.168-2.832.312t-3.42.228q-1.812.084-3.636.084-.744,0-1.836-.06t-2.172-.168q-1.08-.108-1.872-.2Zm-.12,5.184q.576.1,1.368.192t1.62.144q.828.048,1.572.084t1.224.036q2.232,0,4.044-.1t3.4-.24q1.584-.144,3.048-.336l-.024,2.832q-1.248.144-2.412.24t-2.376.168q-1.212.072-2.6.1t-3.12.024q-.7,0-1.728-.036t-2.1-.108q-1.068-.072-1.884-.168Zm34.464-7.368q-.024.192-.06.612t-.06.84q-.024.42-.048.612-.024.48-.024,1.284v1.788q0,.984.012,1.98t.024,1.872q.012.876.012,1.452l-3-1.008V-12.78q0-.9-.012-1.788t-.036-1.608q-.024-.72-.048-1.08-.048-.744-.12-1.308t-.12-.78Zm-13.56,2.976q1.056,0,2.4-.024l2.808-.048,2.88-.048q1.416-.024,2.664-.036t2.16-.012q.912,0,1.992-.012t2.136-.012h3.288l-.024,2.832q-1.128-.048-2.976-.084t-4.512-.036q-1.632,0-3.312.036t-3.336.084q-1.656.048-3.192.108t-2.9.156Zm12.984,7.1A9.722,9.722,0,0,1,267.708-6a3.944,3.944,0,0,1-1.4,1.956,3.94,3.94,0,0,1-2.328.66,3.831,3.831,0,0,1-1.4-.288,4.557,4.557,0,0,1-1.356-.84,4.03,4.03,0,0,1-1-1.368,4.593,4.593,0,0,1-.372-1.92,4.238,4.238,0,0,1,.648-2.364,4.5,4.5,0,0,1,1.74-1.56,5.177,5.177,0,0,1,2.412-.564,4.7,4.7,0,0,1,2.652.708,4.409,4.409,0,0,1,1.608,1.908,6.54,6.54,0,0,1,.54,2.712,8.46,8.46,0,0,1-.384,2.448,8.376,8.376,0,0,1-1.26,2.484,9.042,9.042,0,0,1-2.352,2.2,13,13,0,0,1-3.684,1.608L259.2-.768a18.1,18.1,0,0,0,2.856-.816,9.053,9.053,0,0,0,2.316-1.272,5.431,5.431,0,0,0,1.56-1.9,6.008,6.008,0,0,0,.564-2.712,2.378,2.378,0,0,0-.564-1.728,1.83,1.83,0,0,0-1.356-.576,1.964,1.964,0,0,0-.888.216,1.693,1.693,0,0,0-.7.648,1.989,1.989,0,0,0-.264,1.056,1.65,1.65,0,0,0,.564,1.308,1.9,1.9,0,0,0,1.284.492,1.574,1.574,0,0,0,1.02-.36,1.9,1.9,0,0,0,.588-1.2,5.5,5.5,0,0,0-.24-2.256Zm10.176,3.312a3.7,3.7,0,0,1,1.968.528,4.1,4.1,0,0,1,1.392,1.4,3.716,3.716,0,0,1,.528,1.956,3.734,3.734,0,0,1-.528,1.944A4.069,4.069,0,0,1,280.32,1.3a3.7,3.7,0,0,1-1.968.528,3.734,3.734,0,0,1-1.944-.528A3.905,3.905,0,0,1,275-.12a3.8,3.8,0,0,1-.516-1.944A3.782,3.782,0,0,1,275-4.02a3.935,3.935,0,0,1,1.4-1.4A3.734,3.734,0,0,1,278.352-5.952ZM278.376.1a2.04,2.04,0,0,0,1.512-.636,2.1,2.1,0,0,0,.624-1.524,2.122,2.122,0,0,0-.288-1.092,2.145,2.145,0,0,0-.78-.78,2.077,2.077,0,0,0-1.068-.288,2.058,2.058,0,0,0-1.08.288,2.275,2.275,0,0,0-.78.78,2.057,2.057,0,0,0-.3,1.092,2.057,2.057,0,0,0,.3,1.092,2.275,2.275,0,0,0,.78.78A2.058,2.058,0,0,0,278.376.1Z" transform="translate(960 11078)" fill="#fff"/>
    <line id="線_68" data-name="線 68" x2="299" transform="translate(801 11089)" fill="none" stroke="#fff" stroke-width="4" stroke-dasharray="4 4"/>
  </g>
</svg>
