<svg xmlns="http://www.w3.org/2000/svg" width="913.136" height="67.837" viewBox="0 0 913.136 67.837">
  <g id="グループ_10623" data-name="グループ 10623" transform="translate(-496.968 -10924.06)">
    <g id="グループ_4510" data-name="グループ 4510" transform="translate(10 3)">
      <path id="多角形_17" data-name="多角形 17" d="M2.5,0,5,26.626H0Z" transform="translate(889.973 10946.016) rotate(155)" fill="#f5b55e"/>
      <path id="多角形_18" data-name="多角形 18" d="M1.5,0,3,14.862H0Z" transform="matrix(-0.695, 0.719, -0.719, -0.695, 885.068, 10946.887)" fill="#f5b55e"/>
    </g>
    <g id="グループ_4511" data-name="グループ 4511" transform="translate(-4 3.768)">
      <path id="パス_11181" data-name="パス 11181" d="M2.5,0,5,27.481H0Z" transform="translate(992.117 10947.312) rotate(-155)" fill="#f5b55e"/>
      <path id="多角形_20" data-name="多角形 20" d="M1.5,0,3,15.339H0Z" transform="matrix(-0.695, -0.719, 0.719, -0.695, 994.637, 10948.277)" fill="#f5b55e"/>
    </g>
    <path id="パス_23573" data-name="パス 23573" d="M-40.224-22.7h11.088v5.232H-40.224Zm8.88,0h5.568v2.112q-.1,5.088-.24,8.328a42.3,42.3,0,0,1-.456,5.04,6.32,6.32,0,0,1-.84,2.52,4.462,4.462,0,0,1-1.512,1.3,7.169,7.169,0,0,1-1.848.576,13.851,13.851,0,0,1-2.424.216q-1.464.024-3.192-.024a12.107,12.107,0,0,0-.48-2.784,10.91,10.91,0,0,0-1.056-2.592q1.3.1,2.424.144t1.7.048a2.659,2.659,0,0,0,.84-.12,1.191,1.191,0,0,0,.6-.456,4.055,4.055,0,0,0,.5-1.8q.168-1.368.264-4.176t.144-7.464Zm14.4-15.072,3.5-3.456q1.344.672,2.832,1.584t2.856,1.824A14.679,14.679,0,0,1-5.52-36.048l-3.7,3.84a22.961,22.961,0,0,0-2.112-1.824q-1.3-1.008-2.784-1.992T-16.944-37.776Zm5.664,12.384L-5.424-24A58.208,58.208,0,0,1-13.68-7.464,43.649,43.649,0,0,1-26.064,4.128a12.271,12.271,0,0,0-1.152-1.512Q-27.984,1.728-28.8.84T-30.24-.624a36.02,36.02,0,0,0,11.712-10.1A45.4,45.4,0,0,0-11.28-25.392ZM-39.936-33.6H-2.88v5.664H-39.936Zm-3.84,0h6.048v14.16q0,2.688-.192,5.88t-.72,6.528A39.453,39.453,0,0,1-40.2-.624,23.232,23.232,0,0,1-42.864,4.9,9.008,9.008,0,0,0-44.28,3.5q-.936-.768-1.872-1.512A7.486,7.486,0,0,0-47.76.96,20.894,20.894,0,0,0-45.1-5.5a44.238,44.238,0,0,0,1.08-7.224q.24-3.648.24-6.768Zm19.488-7.152h6.048q-.1,5.9.336,11.568T-16.632-18.6A70.563,70.563,0,0,0-14.64-9.912,23.2,23.2,0,0,0-12.1-4.032Q-10.7-1.92-9.264-1.92q.816,0,1.272-1.968a39.658,39.658,0,0,0,.648-6.48A17.564,17.564,0,0,0-4.968-8.5a12.644,12.644,0,0,0,2.52,1.344,30.162,30.162,0,0,1-1.3,6.888,6.257,6.257,0,0,1-2.3,3.336,6.8,6.8,0,0,1-3.7.912,7.04,7.04,0,0,1-4.68-1.776,15.726,15.726,0,0,1-3.7-4.944,38.783,38.783,0,0,1-2.76-7.44,82.151,82.151,0,0,1-1.9-9.264q-.744-4.992-1.1-10.392T-24.288-40.752ZM3.216-18.1H46.752v5.088H3.216ZM14.4-31.92H40.368v4.464H14.4Zm0,6.912H40.368v4.464H14.4ZM5.328-1.248q2.832-.336,6.5-.84t7.728-1.08q4.056-.576,7.992-1.152L27.84.72q-3.7.576-7.488,1.2t-7.3,1.128q-3.5.5-6.432.984ZM26.976-16.656a23.31,23.31,0,0,0,7.44,10.32A29.5,29.5,0,0,0,47.664-.816,15.358,15.358,0,0,0,46.344.72q-.7.912-1.32,1.872a15.112,15.112,0,0,0-1.008,1.776A34.569,34.569,0,0,1,33.84.36a25.739,25.739,0,0,1-7.224-6.552,36.5,36.5,0,0,1-4.92-9.216Zm13.632,3.024,4.656,3.216q-1.776,1.3-3.72,2.52t-3.912,2.28Q35.664-4.56,33.984-3.744L30.144-6.72q1.68-.864,3.6-2.04t3.72-2.472Q39.264-12.528,40.608-13.632ZM11.232-39.12H41.664v4.7H17.136v18.432h-5.9Zm0,22.56h5.9V-.624L11.232,0Z" transform="translate(940 10987)" fill="#f5b55e"/>
    <path id="パス_23574" data-name="パス 23574" d="M-194.544-34.08q-.288-.816-.672-2.016t-.864-2.4l6.48-.768q.384,1.872.864,3.72t1.056,3.6q.576,1.752,1.152,3.288a48.528,48.528,0,0,0,2.616,5.832,42.642,42.642,0,0,0,2.664,4.488q.624.912,1.272,1.7t1.32,1.512l-2.976,4.32q-1.008-.192-2.544-.408t-3.336-.408l-3.6-.384q-1.8-.192-3.288-.288l.48-5.088q1.2.1,2.544.216t2.52.216q1.176.1,1.944.144-.864-1.392-1.824-3.168t-1.872-3.72q-.912-1.944-1.68-3.912-.768-2.016-1.32-3.648T-194.544-34.08Zm-17.472,2.256q4.464.528,8.4.72t7.344.1q3.408-.1,6.24-.432,2.208-.288,4.3-.624t4.128-.816q2.04-.48,3.864-1.056l.768,6.048q-1.584.432-3.432.816t-3.816.7q-1.968.312-3.888.552-4.848.528-10.656.624t-13.152-.48Zm9.6,16.368a17.648,17.648,0,0,0-1.728,3.288,8.774,8.774,0,0,0-.624,3.192,4.6,4.6,0,0,0,2.64,4.392,16.718,16.718,0,0,0,7.536,1.368,68.558,68.558,0,0,0,7.128-.336q3.192-.336,5.736-.816l-.336,6.048q-2.016.384-5.256.768a66.087,66.087,0,0,1-7.656.384,27.124,27.124,0,0,1-8.448-1.272,11.878,11.878,0,0,1-5.568-3.648A8.96,8.96,0,0,1-210.96-7.92a14.885,14.885,0,0,1,.648-4.344,28.25,28.25,0,0,1,1.9-4.584ZM-134.16-37.68q-.048.384-.1,1.128t-.1,1.56q-.048.816-.1,1.488,0,1.584-.024,3.072t-.048,2.808q-.024,1.32-.072,2.568-.048,2.112-.144,4.416t-.24,4.272a28.707,28.707,0,0,1-.384,3.216,3.827,3.827,0,0,1-1.344,2.52,5.078,5.078,0,0,1-2.832.648q-.816,0-2.232-.12t-2.784-.312q-1.368-.192-2.232-.288l.144-5.328q1.1.24,2.424.432a15.12,15.12,0,0,0,1.992.192,2.142,2.142,0,0,0,1.08-.216,1.048,1.048,0,0,0,.408-.888,22.765,22.765,0,0,0,.216-2.3q.072-1.392.144-3.048t.12-3.24v-8.16q0-.624-.072-1.464t-.12-1.656a9.874,9.874,0,0,0-.144-1.3Zm-18.864,1.44a20.166,20.166,0,0,0-.24,2.328q-.048,1.128-.048,2.664,0,1.3-.024,3.456t-.048,4.68l-.048,5.04q-.024,2.52-.024,4.584t.048,3.264a18.623,18.623,0,0,0,.264,2.9,2.97,2.97,0,0,0,.936,1.752,4.531,4.531,0,0,0,2.28.864,29.378,29.378,0,0,0,4.248.24q2.352,0,4.992-.168t5.088-.456q2.448-.288,4.272-.576l-.24,6.528q-1.584.192-3.936.36t-4.9.288q-2.544.12-4.848.12a41.647,41.647,0,0,1-7.44-.528,8.916,8.916,0,0,1-4.224-1.776,6.083,6.083,0,0,1-1.92-3.36,27.983,27.983,0,0,1-.576-5.232q0-1.056-.024-2.832t-.024-3.96v-4.488q0-2.3.024-4.392t.024-3.672v-2.3q0-1.488-.1-2.784t-.288-2.544ZM-169.1-25.392q1.056,0,2.64-.1t3.408-.24q1.44-.144,4.272-.408l6.432-.6q3.6-.336,7.512-.7t7.512-.648q3.6-.288,6.384-.48,1.008-.1,2.28-.168t2.328-.168v5.9a11.323,11.323,0,0,0-1.248-.048q-.864,0-1.8.024t-1.56.072q-1.872.048-4.56.216t-5.76.432q-3.072.264-6.264.576t-6.12.648q-2.928.336-5.28.576l-3.744.384q-.768.1-1.872.264t-2.184.336l-1.7.264ZM-100.128-38.3q-.288.96-.576,2.352t-.432,2.16q-.336,1.632-.84,3.984t-1.1,4.992q-.6,2.64-1.224,5.04-.624,2.544-1.536,5.5t-1.944,6q-1.032,3.048-2.088,5.808t-2.064,4.92L-118.608.192q1.056-1.824,2.256-4.44t2.328-5.64q1.128-3.024,2.088-6t1.632-5.52q.48-1.68.912-3.456t.768-3.456q.336-1.68.6-3.144t.408-2.568q.144-1.344.192-2.688a14.791,14.791,0,0,0-.048-2.16Zm-12.24,7.152q2.928,0,6.1-.288t6.384-.816q3.216-.528,6.384-1.248v6q-2.976.672-6.336,1.152t-6.624.744q-3.264.264-6,.264-1.728,0-3.12-.072t-2.688-.12l-.144-6q1.872.192,3.216.288T-112.368-31.152ZM-97.3-23.808q2.016-.192,4.464-.336t4.752-.144q2.064,0,4.2.1t4.248.336l-.144,5.76q-1.776-.24-3.912-.408t-4.344-.168q-2.448,0-4.728.12t-4.536.408Zm2.592,12.1a20.933,20.933,0,0,0-.48,2.088,11,11,0,0,0-.192,1.9,3.176,3.176,0,0,0,.336,1.44,3.183,3.183,0,0,0,1.056,1.176,5.672,5.672,0,0,0,1.992.792,14.789,14.789,0,0,0,3.192.288A46.3,46.3,0,0,0-83.88-4.3q2.472-.264,5.064-.744l-.24,6.144q-2.016.24-4.464.456t-5.328.216q-6.048,0-9.24-1.992a6.292,6.292,0,0,1-3.192-5.64,19.577,19.577,0,0,1,.288-3.312q.288-1.68.576-3.12ZM-62.4-34.32a18.22,18.22,0,0,0-.312,1.968q-.12,1.1-.192,2.16t-.072,1.728Q-63.024-26.88-63-25.2t.1,3.432q.072,1.752.216,3.48a46.156,46.156,0,0,0,.96,6.1,12.283,12.283,0,0,0,1.632,4.1,3,3,0,0,0,2.544,1.464,2.2,2.2,0,0,0,1.608-.912A9.434,9.434,0,0,0-54.5-9.912a28.206,28.206,0,0,0,1.152-3.1q.5-1.632.888-3.072l4.8,5.856a37.922,37.922,0,0,1-3.144,6.648,11.278,11.278,0,0,1-3.24,3.552A6.617,6.617,0,0,1-57.7,1.056a8.122,8.122,0,0,1-4.92-1.728,13.129,13.129,0,0,1-3.96-5.592,36.916,36.916,0,0,1-2.3-10.3q-.24-2.208-.36-4.656t-.144-4.656q-.024-2.208-.024-3.648,0-1.008-.1-2.4a24.531,24.531,0,0,0-.288-2.5Zm24,1.1a23.854,23.854,0,0,1,2.592,3.984,48.871,48.871,0,0,1,2.3,5.04q1.056,2.688,1.872,5.5t1.32,5.472a40.636,40.636,0,0,1,.648,4.872L-36-5.9q-.24-2.928-.864-6.384a62.764,62.764,0,0,0-1.68-6.96,48.548,48.548,0,0,0-2.52-6.624A22.943,22.943,0,0,0-44.5-31.248Zm13.776.144H18.912V-27.6H-24.624Zm16.032,11.76H9.792v5.424H-8.592Zm16.224,0h5.952l-.024.456q-.024.456-.024,1.032a4.687,4.687,0,0,1-.1,1.008q-.432,6.576-.96,10.752a45.081,45.081,0,0,1-1.2,6.5A8.637,8.637,0,0,1,9.648,1.824a5.9,5.9,0,0,1-2.3,1.632,12.892,12.892,0,0,1-2.88.624A33.487,33.487,0,0,1,.816,4.2Q-1.44,4.176-3.84,4.08a9.728,9.728,0,0,0-.624-2.856A11.294,11.294,0,0,0-5.9-1.584q2.5.24,4.8.288t3.312.048a6.574,6.574,0,0,0,1.368-.12,2.146,2.146,0,0,0,.984-.5A5.369,5.369,0,0,0,5.88-4.608a44.673,44.673,0,0,0,.984-6q.432-3.888.768-9.84Zm-18.384-8.5H-4.32q-.192,3.84-.6,7.752a55.036,55.036,0,0,1-1.368,7.728A32.52,32.52,0,0,1-9.072-7.056a26.75,26.75,0,0,1-4.8,6.432,29.123,29.123,0,0,1-7.536,5.28,14.442,14.442,0,0,0-1.8-2.592,18.309,18.309,0,0,0-2.28-2.3,24.5,24.5,0,0,0,6.84-4.488,21.088,21.088,0,0,0,4.2-5.568,26.728,26.728,0,0,0,2.28-6.264,45.966,45.966,0,0,0,1.008-6.624Q-10.9-26.544-10.752-29.808Zm4.608-11.184h6v10.08h-6Zm47.952,11.52q2.064.192,4.152.312t4.248.12q4.416,0,8.784-.384a63.138,63.138,0,0,0,8.064-1.2v6q-3.744.528-8.112.84t-8.736.312q-2.112,0-4.2-.072t-4.2-.216Zm18.24-8.112q-.1.672-.168,1.488t-.12,1.632q-.048.768-.1,2.064t-.048,2.9v3.384q0,3.264.1,6.12t.24,5.28q.144,2.424.264,4.44t.12,3.744a11.346,11.346,0,0,1-.5,3.456A7.351,7.351,0,0,1,58.224-.288a7.151,7.151,0,0,1-2.9,1.848,13.041,13.041,0,0,1-4.392.648A13.524,13.524,0,0,1,43.056.192a6.655,6.655,0,0,1-2.88-5.808,7.293,7.293,0,0,1,1.3-4.3,8.455,8.455,0,0,1,3.7-2.88,14.263,14.263,0,0,1,5.664-1.032,24.733,24.733,0,0,1,6.192.72,23.967,23.967,0,0,1,5.088,1.92,26.172,26.172,0,0,1,4.1,2.616q1.8,1.416,3.24,2.712L66.144-.816A52.552,52.552,0,0,0,60.816-5.28a23.568,23.568,0,0,0-5.16-2.88,14.393,14.393,0,0,0-5.3-1.008,6.291,6.291,0,0,0-3.288.768,2.4,2.4,0,0,0-1.272,2.16,2.226,2.226,0,0,0,1.3,2.112,6.819,6.819,0,0,0,3.168.672,4.668,4.668,0,0,0,2.352-.5,2.76,2.76,0,0,0,1.224-1.488,6.94,6.94,0,0,0,.36-2.376q0-1.248-.1-3.264T53.88-15.6q-.12-2.5-.216-5.208t-.1-5.3q0-2.736-.024-4.968t-.024-3.336q0-.528-.1-1.488t-.24-1.68Zm-23.424.528q-.144.48-.408,1.344t-.432,1.68q-.168.816-.264,1.248-.24,1.008-.528,2.712t-.6,3.84q-.312,2.136-.6,4.368T33.36-17.64q-.144,1.992-.144,3.432,0,.72.024,1.56a9.32,9.32,0,0,0,.168,1.56q.336-.864.7-1.68t.744-1.632q.384-.816.72-1.632l2.928,2.4q-.672,1.968-1.368,4.128T35.88-5.424q-.552,1.92-.84,3.216-.1.48-.168,1.152A10.759,10.759,0,0,0,34.8.048q0,.384.024.936T34.9,2.016l-5.424.432a46.053,46.053,0,0,1-1.344-6.5,61.886,61.886,0,0,1-.576-8.856q0-2.688.24-5.64t.552-5.688q.312-2.736.648-5.016t.528-3.672q.144-1.008.288-2.28T30-37.632ZM88.7-30h6.1V-4.848A5.846,5.846,0,0,0,95.016-3a1.228,1.228,0,0,0,.84.792,6.809,6.809,0,0,0,1.872.192h7.248a2.63,2.63,0,0,0,1.9-.624,4.249,4.249,0,0,0,.912-2.4q.264-1.776.456-5.184a16.2,16.2,0,0,0,1.728.984,20.708,20.708,0,0,0,2.04.888,14.53,14.53,0,0,0,1.9.576A30.861,30.861,0,0,1,112.68-.912a6.4,6.4,0,0,1-2.52,3.552A8.724,8.724,0,0,1,105.5,3.7h-8.5a13.69,13.69,0,0,1-5.064-.744A4.423,4.423,0,0,1,89.424.336a14.906,14.906,0,0,1-.72-5.184Zm.576-6.672,3.7-4.176q1.968,1.248,4.1,2.736t4.1,2.928q1.968,1.44,3.36,2.544l-3.84,4.7q-1.344-1.152-3.312-2.688t-4.1-3.144Q91.152-35.376,89.28-36.672Zm-8.3,8.88L86.5-26.4q-.48,2.832-1.2,5.9T83.664-14.64a25.349,25.349,0,0,1-2.112,4.848l-5.664-2.064a30.138,30.138,0,0,0,2.232-4.728,53.886,53.886,0,0,0,1.728-5.5A49.33,49.33,0,0,0,80.976-27.792ZM109.3-22.08l5.184-2.448a56.17,56.17,0,0,1,2.976,4.8q1.44,2.592,2.568,5.064a38.1,38.1,0,0,1,1.752,4.488l-5.568,2.832A33.759,33.759,0,0,0,114.6-11.9q-1.08-2.544-2.472-5.232T109.3-22.08Zm2.3-15.888,5.808,2.3a96.54,96.54,0,0,1-6.744,10.944,90.077,90.077,0,0,1-8.52,10.272,83.661,83.661,0,0,1-10.3,9.072A76.622,76.622,0,0,1,79.824,1.968Q79.392,1.3,78.744.456t-1.368-1.68a12.194,12.194,0,0,0-1.344-1.368A64.437,64.437,0,0,0,87.576-9.336,78.449,78.449,0,0,0,97.536-18a78.309,78.309,0,0,0,8.112-9.816A72.393,72.393,0,0,0,111.6-37.968ZM136.848-26.64v2.976H156.96V-26.64Zm0,7.68v3.024H156.96V-18.96Zm0-15.312V-31.3H156.96v-2.976Zm-5.568-4.992h31.536v28.32H131.28Zm17.808,24.48h5.9V-3.312q0,1.152.36,1.464a2.954,2.954,0,0,0,1.7.312h5.04a1.69,1.69,0,0,0,1.248-.432,3.368,3.368,0,0,0,.624-1.824q.192-1.392.288-4.224a10.226,10.226,0,0,0,1.56.96,13.386,13.386,0,0,0,1.968.816q1.032.336,1.752.576a24.574,24.574,0,0,1-1.008,5.88,5.116,5.116,0,0,1-2.112,2.9,7.5,7.5,0,0,1-3.792.816H156.24a11.438,11.438,0,0,1-4.392-.672,3.849,3.849,0,0,1-2.16-2.256,12.37,12.37,0,0,1-.6-4.272Zm-11.712,1.968h6.144a33.865,33.865,0,0,1-1.032,5.976,14.019,14.019,0,0,1-2.4,4.872,14.127,14.127,0,0,1-4.68,3.768,32.227,32.227,0,0,1-7.872,2.712,7.869,7.869,0,0,0-.792-1.752q-.552-.936-1.2-1.872a9.125,9.125,0,0,0-1.272-1.512,29.609,29.609,0,0,0,6.672-1.9,11.173,11.173,0,0,0,3.816-2.616,8.457,8.457,0,0,0,1.848-3.384A25.565,25.565,0,0,0,137.376-12.816Zm55.056.48-1.3-16.416L190.9-35.9h7.968l-.24,7.152-1.3,16.416ZM194.88.432a4.1,4.1,0,0,1-3.024-1.2,4.1,4.1,0,0,1-1.2-3.024,4.16,4.16,0,0,1,1.2-3.072,4.1,4.1,0,0,1,3.024-1.2,4.1,4.1,0,0,1,3.024,1.2,4.16,4.16,0,0,1,1.2,3.072,4.1,4.1,0,0,1-1.2,3.024A4.1,4.1,0,0,1,194.88.432Z" transform="translate(1211 10987)" fill="#fff"/>
    <path id="パス_23572" data-name="パス 23572" d="M-189.144-24.1h26.112v5.328h-26.112Zm0,10.272h26.112V-8.5h-26.112Zm0,10.32h26.112V1.824h-26.112Zm-3.888-31.056h34.848V4.176h-6.1V-29.04h-22.944V4.272h-5.808Zm13.632-6.288,6.96.768q-.864,2.352-1.824,4.608t-1.776,3.888l-5.28-.96q.384-1.2.768-2.664t.7-2.928Q-179.544-39.6-179.4-40.848Zm49.056,38.112h27.312V2.928h-27.312Zm1.968-23.184h24.192v5.568h-24.192Zm9.12-14.4h5.952V0h-5.952Zm-28.32,8.448h15.7v5.184h-15.7Zm6.864,16.368L-135-22.32V4.32h-5.712Zm0-25.248H-135v11.28h-5.712Zm5.088,20.064a20.091,20.091,0,0,1,1.848,1.416q1.176.984,2.52,2.16t2.448,2.16q1.1.984,1.584,1.416l-3.456,4.7q-.72-.912-1.752-2.136t-2.184-2.52q-1.152-1.3-2.256-2.448t-1.872-1.92Zm1.68-11.184h1.1l1.008-.24L-128.616-30a42.933,42.933,0,0,1-4.656,8.952,50.535,50.535,0,0,1-6.336,7.656,41.487,41.487,0,0,1-7.056,5.664,15.328,15.328,0,0,0-.744-1.848q-.5-1.08-1.008-2.064a8.561,8.561,0,0,0-.984-1.56,29.143,29.143,0,0,0,6.336-4.536,40.017,40.017,0,0,0,5.424-6.192,29.437,29.437,0,0,0,3.7-6.936Zm62.208-1.008q-.48,3.648-1.248,7.776a75.642,75.642,0,0,1-2.064,8.352A42.9,42.9,0,0,1-78.312-8.4a18.308,18.308,0,0,1-4.1,5.4,7.37,7.37,0,0,1-4.872,1.9A7.6,7.6,0,0,1-92.16-2.9a12.3,12.3,0,0,1-3.552-4.968,18.574,18.574,0,0,1-1.32-7.2,18.8,18.8,0,0,1,1.68-7.872,20.942,20.942,0,0,1,4.68-6.552,22.188,22.188,0,0,1,7.008-4.488A22.754,22.754,0,0,1-75-35.616a21.36,21.36,0,0,1,8.04,1.44,18.1,18.1,0,0,1,6.12,3.984,17.292,17.292,0,0,1,3.888,5.952A19.838,19.838,0,0,1-55.608-16.9a19.327,19.327,0,0,1-2.064,9.024A17.062,17.062,0,0,1-63.792-1.3,26.242,26.242,0,0,1-73.9,2.256l-3.6-5.712q1.392-.144,2.448-.336t2.016-.432a18.266,18.266,0,0,0,4.3-1.656,13.407,13.407,0,0,0,3.48-2.688,11.76,11.76,0,0,0,2.328-3.768,13.005,13.005,0,0,0,.84-4.752,14.933,14.933,0,0,0-.864-5.184,11.671,11.671,0,0,0-2.544-4.1,11.209,11.209,0,0,0-4.08-2.688A15.119,15.119,0,0,0-75.1-30a15.826,15.826,0,0,0-6.768,1.368A15.844,15.844,0,0,0-86.808-25.1a15.49,15.49,0,0,0-3.048,4.656A12.441,12.441,0,0,0-90.888-15.7a12,12,0,0,0,.576,4.008,6.066,6.066,0,0,0,1.416,2.4,2.591,2.591,0,0,0,1.8.792A2.8,2.8,0,0,0-85.1-9.528a11.513,11.513,0,0,0,1.944-3.144A42.535,42.535,0,0,0-81.24-18a65.56,65.56,0,0,0,1.872-7.392,75.228,75.228,0,0,0,1.1-7.68Zm24,32.88V-35.568h21.792v5.952H-40.632v8.208H-28.2v5.952H-40.632v9.5h15.216V0ZM-1.848.672A16.713,16.713,0,0,1-8.136-.5,14.5,14.5,0,0,1-13.3-4.032a16.758,16.758,0,0,1-3.5-5.76,22.29,22.29,0,0,1-1.272-7.824,22.115,22.115,0,0,1,1.3-7.848A17.138,17.138,0,0,1-13.2-31.3a15.344,15.344,0,0,1,5.28-3.648,16.392,16.392,0,0,1,6.36-1.248,13.1,13.1,0,0,1,6.072,1.368,15.376,15.376,0,0,1,4.344,3.192L5.16-27.12a11.565,11.565,0,0,0-2.952-2.16A7.894,7.894,0,0,0-1.416-30.1,8.334,8.334,0,0,0-6.24-28.632a9.615,9.615,0,0,0-3.336,4.2,16.31,16.31,0,0,0-1.2,6.576,17.559,17.559,0,0,0,1.128,6.648A9.435,9.435,0,0,0-6.432-6.96,8.177,8.177,0,0,0-1.56-5.472a8.416,8.416,0,0,0,4.1-.984,12.139,12.139,0,0,0,3.192-2.52L9.528-4.56A14.835,14.835,0,0,1,4.488-.648,14.819,14.819,0,0,1-1.848.672Zm50.5-21.888A46.149,46.149,0,0,1,48-13.128a22,22,0,0,1-2.232,6.576,17.892,17.892,0,0,1-4.416,5.3A30.622,30.622,0,0,1,34.2,3.024L29.064-1.824A33.179,33.179,0,0,0,35.04-4.512a13.978,13.978,0,0,0,4.152-3.672,14.872,14.872,0,0,0,2.424-5.28,30.721,30.721,0,0,0,.792-7.512V-33.744q0-1.488-.1-2.616t-.192-1.848h6.864q-.1.72-.216,1.848a25.046,25.046,0,0,0-.12,2.616ZM31.32-37.776q-.1.672-.192,1.8t-.1,2.52v17.184q0,1.056.048,2.04t.072,1.728q.024.744.072,1.272H24.5a11.314,11.314,0,0,0,.144-1.272q.048-.744.1-1.728t.048-2.04V-33.456q0-1.056-.072-2.16t-.216-2.16Zm-15.84,8.64q.48.048,1.248.168t1.776.192q1.008.072,2.208.072H52.2q1.92,0,3.12-.1t2.16-.24v6.384a20.526,20.526,0,0,0-2.064-.12Q54.12-22.8,52.2-22.8H20.712q-1.2,0-2.184.024T16.8-22.7q-.744.048-1.32.1ZM63.72-18.672a84,84,0,0,0,11.736-3.912,69.816,69.816,0,0,0,9.24-4.68,52.369,52.369,0,0,0,5.016-3.528q2.52-1.992,4.752-4.1a40.269,40.269,0,0,0,3.768-4.032l5.184,4.944q-2.208,2.16-4.824,4.368t-5.448,4.224q-2.832,2.016-5.616,3.7-2.736,1.584-6.12,3.264T74.28-15.264q-3.744,1.488-7.536,2.64Zm19.968-5.52L90.5-25.776v21.6q0,1.056.048,2.3T90.7.456a11.45,11.45,0,0,0,.24,1.656H83.352q.1-.576.168-1.656t.12-2.328q.048-1.248.048-2.3ZM119.016-4.608v-27.6q0-1.248-.12-2.88a25.186,25.186,0,0,0-.36-2.88h7.488q-.144,1.248-.288,2.76t-.144,3v27.6q0,.672.048,1.9t.192,2.52q.144,1.3.192,2.3h-7.488q.192-1.44.336-3.36T119.016-4.608Zm5.136-20.928q2.4.624,5.376,1.608t6,2.088q3.024,1.1,5.688,2.184t4.44,1.992L142.92-11.04q-2.016-1.056-4.464-2.136t-4.968-2.088q-2.52-1.008-4.944-1.872t-4.392-1.536Zm51.12-12.96q-.24,1.3-.768,3.36a41.24,41.24,0,0,1-1.536,4.656q-.768,1.776-1.752,3.672a33.833,33.833,0,0,1-1.992,3.384,8.06,8.06,0,0,1,1.584-.5,19.144,19.144,0,0,1,1.992-.336,16.169,16.169,0,0,1,1.848-.12,7.38,7.38,0,0,1,5.016,1.728,6.431,6.431,0,0,1,1.992,5.136q0,.96.024,2.352t.072,2.9q.048,1.512.1,2.952T181.9-6.72h-5.76q.1-.816.12-1.944t.048-2.376q.024-1.248.048-2.424t.024-2.136a3.7,3.7,0,0,0-1.224-3.192,4.512,4.512,0,0,0-2.712-.888,9.273,9.273,0,0,0-4.056.984,13.058,13.058,0,0,0-3.432,2.328q-1.056,1.056-2.136,2.352t-2.328,2.928l-5.136-3.84a64.015,64.015,0,0,0,5.4-5.568,40.485,40.485,0,0,0,3.864-5.328,33.506,33.506,0,0,0,2.592-5.28,29.054,29.054,0,0,0,1.176-4.008,24.423,24.423,0,0,0,.552-3.912ZM157.224-34.08q1.824.288,4.224.432t4.224.144q3.168,0,6.936-.144t7.656-.5q3.888-.36,7.392-.936l-.048,5.568q-2.544.336-5.5.6t-6,.432q-3.048.168-5.832.24t-4.944.072q-.96,0-2.376-.024t-2.9-.1q-1.488-.072-2.832-.168ZM195.24-20.448q-.768.24-1.8.6l-2.064.72q-1.032.36-1.848.7-2.3.912-5.448,2.208T177.528-13.2a29.32,29.32,0,0,0-3.648,2.256,9.628,9.628,0,0,0-2.256,2.232,4.3,4.3,0,0,0-.768,2.472,2.928,2.928,0,0,0,.432,1.656,2.937,2.937,0,0,0,1.3,1.032,7.358,7.358,0,0,0,2.16.528,28.286,28.286,0,0,0,3.072.144q3.072,0,6.768-.36t6.864-.984l-.192,6.192q-1.536.192-3.888.408t-4.872.312q-2.52.1-4.824.1a28.656,28.656,0,0,1-6.72-.72,9.452,9.452,0,0,1-4.68-2.472,6.625,6.625,0,0,1-1.7-4.824A9.08,9.08,0,0,1,165.7-9.744a13.724,13.724,0,0,1,3-3.648,27.624,27.624,0,0,1,4.1-2.952q2.232-1.32,4.392-2.424,2.208-1.152,3.984-1.968t3.336-1.464q1.56-.648,3-1.32,1.392-.624,2.688-1.224t2.64-1.272Z" transform="translate(690 10987)" fill="#fff"/>
  </g>
</svg>
