<svg xmlns="http://www.w3.org/2000/svg" width="43.637" height="60" viewBox="0 0 43.637 60">
  <path id="emoji_objects_FILL0_wght400_GRAD0_opsz48" d="M211.818,236a6.544,6.544,0,0,1-3.574-.975,4.422,4.422,0,0,1-1.994-2.7H205.2a4.621,4.621,0,0,1-4.514-4.5V217.1a23.706,23.706,0,0,1-7.824-8.25A22.053,22.053,0,0,1,190,197.75a21.818,21.818,0,1,1,43.636,0,22.052,22.052,0,0,1-2.859,11.1,23.7,23.7,0,0,1-7.824,8.25v10.725a4.621,4.621,0,0,1-4.514,4.5h-1.053a4.422,4.422,0,0,1-1.994,2.7A6.544,6.544,0,0,1,211.818,236Zm-6.621-8.175h13.241v-3.3H205.2Zm0-6.3h13.241v-3H205.2Zm-.677-7.5h5.567V203.75l-6.922-6.9,2.332-2.325,6.32,6.3,6.32-6.3,2.332,2.325-6.922,6.9v10.275h5.567a16.728,16.728,0,0,0,7.26-6.525,18.129,18.129,0,0,0,2.746-9.75,17.3,17.3,0,1,0-34.608,0,18.129,18.129,0,0,0,2.746,9.75A16.728,16.728,0,0,0,204.52,214.025ZM211.818,200.825ZM211.818,197.225Z" transform="translate(-190 -176)" fill="#006FBF"/>
</svg>
