<svg xmlns="http://www.w3.org/2000/svg" width="58" height="48" viewBox="0 0 58 48">
  <path id="tenancy_FILL0_wght400_GRAD0_opsz48" d="M47.909,264a7.583,7.583,0,0,1-5.6-2.333,8.113,8.113,0,0,1,0-11.333,7.583,7.583,0,0,1,5.6-2.333,7.93,7.93,0,0,1,1.464.133,8.924,8.924,0,0,1,1.436.4l10.545-14.6a12.03,12.03,0,0,1-2.109-3.3,9.9,9.9,0,0,1-.791-3.967,10.331,10.331,0,0,1,3.1-7.533,10.418,10.418,0,0,1,14.9,0,10.331,10.331,0,0,1,3.1,7.533,9.948,9.948,0,0,1-.784,3.962,11.9,11.9,0,0,1-2.116,3.3L87.191,248.6a6.213,6.213,0,0,1,1.417-.467A7.839,7.839,0,0,1,90.091,248a7.583,7.583,0,0,1,5.6,2.333,8.113,8.113,0,0,1,0,11.333,7.892,7.892,0,0,1-11.2,0A7.76,7.76,0,0,1,82.182,256a7.453,7.453,0,0,1,.494-2.733,8.834,8.834,0,0,1,1.351-2.333l-10.545-14.6a5.23,5.23,0,0,1-1.219.5q-.626.167-1.285.3v11.137a8.044,8.044,0,0,1,3.625,13.4,7.892,7.892,0,0,1-11.2,0,8.014,8.014,0,0,1,3.625-13.4V237.13q-.659-.129-1.285-.3a5.23,5.23,0,0,1-1.219-.5l-10.545,14.6a8.834,8.834,0,0,1,1.351,2.333A7.453,7.453,0,0,1,55.818,256a7.76,7.76,0,0,1-2.307,5.667A7.583,7.583,0,0,1,47.909,264Zm0-4a3.8,3.8,0,0,0,2.818-1.15,4.141,4.141,0,0,0,0-5.7,4.027,4.027,0,0,0-5.635,0,4.141,4.141,0,0,0,0,5.7A3.8,3.8,0,0,0,47.909,260ZM69,226.667ZM69,260a3.8,3.8,0,0,0,2.818-1.15,4.141,4.141,0,0,0,0-5.7,4.027,4.027,0,0,0-5.635,0,4.141,4.141,0,0,0,0,5.7A3.8,3.8,0,0,0,69,260Zm21.091,0a3.8,3.8,0,0,0,2.818-1.15,4.141,4.141,0,0,0,0-5.7,4.027,4.027,0,0,0-5.635,0,4.141,4.141,0,0,0,0,5.7A3.8,3.8,0,0,0,90.091,260ZM47.909,256ZM69,256ZM90.091,256ZM69,233.333a6.327,6.327,0,0,0,4.68-1.933,6.817,6.817,0,0,0,0-9.467,6.63,6.63,0,0,0-9.359,0,6.817,6.817,0,0,0,0,9.467A6.327,6.327,0,0,0,69,233.333Z" transform="translate(-40 -216)" fill="#006FBF"/>
</svg>
